<mxfile host="Electron" modified="2023-06-11T11:51:53.470Z" agent="Mozilla/5.0 (X11; Linux x86_64) AppleWebKit/537.36 (KHTML, like Gecko) draw.io/21.3.7 Chrome/112.0.5615.204 Electron/24.5.0 Safari/537.36" etag="PBJMDKSnpXt8yzsHEA3o" version="21.3.7" type="device">
  <diagram name="Page-1" id="MR886Cy3C2vmONpptm1g">
    <mxGraphModel dx="1114" dy="600" grid="1" gridSize="10" guides="1" tooltips="1" connect="1" arrows="1" fold="1" page="1" pageScale="1" pageWidth="850" pageHeight="1100" math="0" shadow="0">
      <root>
        <mxCell id="0" />
        <mxCell id="1" parent="0" />
        <mxCell id="IVVVf8IkiKVBsQdNpc9e-20" value="" style="rounded=0;whiteSpace=wrap;html=1;fillColor=#FFCE9F;strokeColor=#d6b656;" vertex="1" parent="1">
          <mxGeometry x="220" y="160" width="20" height="160" as="geometry" />
        </mxCell>
        <mxCell id="IVVVf8IkiKVBsQdNpc9e-19" value="" style="rounded=0;whiteSpace=wrap;html=1;fillColor=#FFCE9F;strokeColor=#d6b656;" vertex="1" parent="1">
          <mxGeometry x="280" y="160" width="20" height="160" as="geometry" />
        </mxCell>
        <mxCell id="IVVVf8IkiKVBsQdNpc9e-18" value="" style="rounded=0;whiteSpace=wrap;html=1;fillColor=#FFCE9F;strokeColor=#d6b656;" vertex="1" parent="1">
          <mxGeometry x="340" y="160" width="20" height="160" as="geometry" />
        </mxCell>
        <mxCell id="IVVVf8IkiKVBsQdNpc9e-15" value="" style="rounded=0;whiteSpace=wrap;html=1;fillColor=#FFCE9F;strokeColor=#d6b656;" vertex="1" parent="1">
          <mxGeometry x="400" y="160" width="20" height="160" as="geometry" />
        </mxCell>
        <mxCell id="IVVVf8IkiKVBsQdNpc9e-14" value="" style="rounded=0;whiteSpace=wrap;html=1;fillColor=#FFCE9F;strokeColor=#d6b656;" vertex="1" parent="1">
          <mxGeometry x="460" y="160" width="20" height="160" as="geometry" />
        </mxCell>
        <mxCell id="IVVVf8IkiKVBsQdNpc9e-13" value="" style="rounded=0;whiteSpace=wrap;html=1;fillColor=#fff2cc;strokeColor=#d6b656;" vertex="1" parent="1">
          <mxGeometry x="420" y="160" width="40" height="160" as="geometry" />
        </mxCell>
        <mxCell id="IVVVf8IkiKVBsQdNpc9e-11" value="" style="rounded=0;whiteSpace=wrap;html=1;fillColor=#fff2cc;strokeColor=#d6b656;" vertex="1" parent="1">
          <mxGeometry x="360" y="160" width="40" height="160" as="geometry" />
        </mxCell>
        <mxCell id="IVVVf8IkiKVBsQdNpc9e-9" value="" style="rounded=0;whiteSpace=wrap;html=1;fillColor=#fff2cc;strokeColor=#d6b656;" vertex="1" parent="1">
          <mxGeometry x="300" y="160" width="40" height="160" as="geometry" />
        </mxCell>
        <mxCell id="IVVVf8IkiKVBsQdNpc9e-8" value="" style="rounded=0;whiteSpace=wrap;html=1;fillColor=#fff2cc;strokeColor=#d6b656;" vertex="1" parent="1">
          <mxGeometry x="240" y="160" width="40" height="160" as="geometry" />
        </mxCell>
        <mxCell id="-HJEB60_RRp2c4dYzQ01-13" value="" style="endArrow=classic;html=1;rounded=0;strokeWidth=3;" parent="1" edge="1">
          <mxGeometry width="50" height="50" relative="1" as="geometry">
            <mxPoint x="220" y="340" as="sourcePoint" />
            <mxPoint x="480" y="340" as="targetPoint" />
          </mxGeometry>
        </mxCell>
        <mxCell id="-HJEB60_RRp2c4dYzQ01-14" value="&lt;font style=&quot;&quot;&gt;&lt;font face=&quot;Times New Roman&quot; style=&quot;font-size: 30px;&quot;&gt;&lt;b&gt;Time&lt;/b&gt;&lt;/font&gt;&lt;br&gt;&lt;/font&gt;" style="text;html=1;strokeColor=none;fillColor=none;align=center;verticalAlign=middle;whiteSpace=wrap;rounded=0;" parent="1" vertex="1">
          <mxGeometry x="120" y="320" width="80" height="40" as="geometry" />
        </mxCell>
        <mxCell id="-HJEB60_RRp2c4dYzQ01-66" value="" style="rounded=0;whiteSpace=wrap;html=1;fillColor=#3188EB;fontColor=#ffffff;strokeColor=#000000;gradientColor=#ffffff;strokeWidth=3;" parent="1" vertex="1">
          <mxGeometry x="460" y="360" width="20" height="160" as="geometry" />
        </mxCell>
        <mxCell id="-HJEB60_RRp2c4dYzQ01-67" value="" style="rounded=0;whiteSpace=wrap;html=1;fillColor=#88B3EB;fontColor=#ffffff;strokeColor=#000000;gradientColor=#FFFFFF;strokeWidth=3;" parent="1" vertex="1">
          <mxGeometry x="400" y="360" width="20" height="160" as="geometry" />
        </mxCell>
        <mxCell id="-HJEB60_RRp2c4dYzQ01-68" value="" style="rounded=0;whiteSpace=wrap;html=1;fillColor=#60CFEB;fontColor=#ffffff;strokeColor=#000000;gradientColor=#FFFFFF;strokeWidth=3;" parent="1" vertex="1">
          <mxGeometry x="340" y="360" width="20" height="160" as="geometry" />
        </mxCell>
        <mxCell id="-HJEB60_RRp2c4dYzQ01-70" value="" style="rounded=0;whiteSpace=wrap;html=1;fillColor=#4BEBAB;fontColor=#ffffff;strokeColor=#000000;gradientColor=#FFFFFF;strokeWidth=3;" parent="1" vertex="1">
          <mxGeometry x="280" y="360" width="20" height="160" as="geometry" />
        </mxCell>
        <mxCell id="-HJEB60_RRp2c4dYzQ01-71" value="" style="rounded=0;whiteSpace=wrap;html=1;fillColor=#31EB69;fontColor=#ffffff;strokeColor=#000000;gradientColor=#FFFFFF;strokeWidth=3;" parent="1" vertex="1">
          <mxGeometry x="220" y="360" width="20" height="160" as="geometry" />
        </mxCell>
        <mxCell id="IVVVf8IkiKVBsQdNpc9e-2" value="" style="curved=1;endArrow=none;html=1;rounded=0;endFill=0;strokeWidth=4;" edge="1" parent="1">
          <mxGeometry width="50" height="50" relative="1" as="geometry">
            <mxPoint x="220" y="240" as="sourcePoint" />
            <mxPoint x="480" y="240" as="targetPoint" />
            <Array as="points">
              <mxPoint x="270" y="190" />
              <mxPoint x="310" y="290" />
              <mxPoint x="360" y="300" />
              <mxPoint x="380" y="220" />
              <mxPoint x="430" y="160" />
              <mxPoint x="440" y="260" />
            </Array>
          </mxGeometry>
        </mxCell>
        <mxCell id="IVVVf8IkiKVBsQdNpc9e-3" value="" style="endArrow=none;dashed=1;html=1;dashPattern=1 3;strokeWidth=2;rounded=0;" edge="1" parent="1">
          <mxGeometry width="50" height="50" relative="1" as="geometry">
            <mxPoint x="350" y="320" as="sourcePoint" />
            <mxPoint x="350" y="160" as="targetPoint" />
          </mxGeometry>
        </mxCell>
        <mxCell id="IVVVf8IkiKVBsQdNpc9e-4" value="" style="endArrow=none;dashed=1;html=1;dashPattern=1 3;strokeWidth=2;rounded=0;" edge="1" parent="1">
          <mxGeometry width="50" height="50" relative="1" as="geometry">
            <mxPoint x="409.5" y="320" as="sourcePoint" />
            <mxPoint x="409.5" y="160" as="targetPoint" />
          </mxGeometry>
        </mxCell>
        <mxCell id="IVVVf8IkiKVBsQdNpc9e-5" value="" style="endArrow=none;dashed=1;html=1;dashPattern=1 3;strokeWidth=2;rounded=0;" edge="1" parent="1">
          <mxGeometry width="50" height="50" relative="1" as="geometry">
            <mxPoint x="469.5" y="320" as="sourcePoint" />
            <mxPoint x="469.5" y="160" as="targetPoint" />
          </mxGeometry>
        </mxCell>
        <mxCell id="IVVVf8IkiKVBsQdNpc9e-6" value="" style="endArrow=none;dashed=1;html=1;dashPattern=1 3;strokeWidth=2;rounded=0;" edge="1" parent="1">
          <mxGeometry width="50" height="50" relative="1" as="geometry">
            <mxPoint x="289.5" y="320" as="sourcePoint" />
            <mxPoint x="289.5" y="160" as="targetPoint" />
          </mxGeometry>
        </mxCell>
        <mxCell id="IVVVf8IkiKVBsQdNpc9e-7" value="" style="endArrow=none;dashed=1;html=1;dashPattern=1 3;strokeWidth=2;rounded=0;" edge="1" parent="1">
          <mxGeometry width="50" height="50" relative="1" as="geometry">
            <mxPoint x="229.5" y="320" as="sourcePoint" />
            <mxPoint x="229.5" y="160" as="targetPoint" />
          </mxGeometry>
        </mxCell>
      </root>
    </mxGraphModel>
  </diagram>
</mxfile>
